<?xml version="1.0" encoding="UTF-8"?>
<svg id="_1" data-name="1" xmlns="http://www.w3.org/2000/svg" xmlns:xlink="http://www.w3.org/1999/xlink" viewBox="0 0 500.5 501.5">
  <defs>
    <style>
      .cls-1 {
        fill: url(#_未命名的渐变_71-4);
      }

      .cls-1, .cls-2, .cls-3, .cls-4, .cls-5, .cls-6, .cls-7, .cls-8, .cls-9, .cls-10, .cls-11, .cls-12, .cls-13, .cls-14, .cls-15 {
        stroke-width: 0px;
      }

      .cls-2 {
        fill: url(#_未命名的渐变_71-11);
      }

      .cls-3 {
        fill: url(#_未命名的渐变_71-12);
      }

      .cls-4 {
        fill: url(#_未命名的渐变_71-7);
      }

      .cls-5 {
        fill: url(#_未命名的渐变_71-15);
      }

      .cls-6 {
        fill: url(#_未命名的渐变_71-5);
      }

      .cls-7 {
        fill: url(#_未命名的渐变_71);
      }

      .cls-8 {
        fill: url(#_未命名的渐变_71-2);
      }

      .cls-9 {
        fill: url(#_未命名的渐变_71-9);
      }

      .cls-10 {
        fill: url(#_未命名的渐变_71-6);
      }

      .cls-11 {
        fill: url(#_未命名的渐变_71-13);
      }

      .cls-12 {
        fill: url(#_未命名的渐变_71-14);
      }

      .cls-13 {
        fill: url(#_未命名的渐变_71-10);
      }

      .cls-14 {
        fill: url(#_未命名的渐变_71-3);
      }

      .cls-15 {
        fill: url(#_未命名的渐变_71-8);
      }
    </style>
    <radialGradient id="_未命名的渐变_71" data-name="未命名的渐变 71" cx="375" cy="250.05" fx="375" fy="250.05" r="90.48" gradientUnits="userSpaceOnUse">
      <stop offset="0" stop-color="#000"/>
      <stop offset="1" stop-color="#000" stop-opacity="0"/>
    </radialGradient>
    <radialGradient id="_未命名的渐变_71-2" data-name="未命名的渐变 71" cx="368.92" cy="312.72" fx="368.92" fy="312.72" r="95.2" xlink:href="#_未命名的渐变_71"/>
    <radialGradient id="_未命名的渐变_71-3" data-name="未命名的渐变 71" cx="368.85" cy="187.42" fx="368.85" fy="187.42" r="95.14" xlink:href="#_未命名的渐变_71"/>
    <radialGradient id="_未命名的渐变_71-4" data-name="未命名的渐变 71" cx="342.82" cy="351.42" fx="342.82" fy="351.42" r="97.27" xlink:href="#_未命名的渐变_71"/>
    <radialGradient id="_未命名的渐变_71-5" data-name="未命名的渐变 71" cx="342.72" cy="148.8" fx="342.72" fy="148.8" r="97.15" xlink:href="#_未命名的渐变_71"/>
    <radialGradient id="_未命名的渐变_71-6" data-name="未命名的渐变 71" cx="300.65" cy="372.58" fx="300.65" fy="372.58" r="93.71" xlink:href="#_未命名的渐变_71"/>
    <radialGradient id="_未命名的渐变_71-7" data-name="未命名的渐变 71" cx="300.58" cy="127.7" fx="300.58" fy="127.7" r="93.56" xlink:href="#_未命名的渐变_71"/>
    <radialGradient id="_未命名的渐变_71-8" data-name="未命名的渐变 71" cx="223.87" cy="375.75" fx="223.87" fy="375.75" r="89.92" xlink:href="#_未命名的渐变_71"/>
    <radialGradient id="_未命名的渐变_71-9" data-name="未命名的渐变 71" cx="223.66" cy="125.75" fx="223.66" fy="125.75" r="90.64" xlink:href="#_未命名的渐变_71"/>
    <radialGradient id="_未命名的渐变_71-10" data-name="未命名的渐变 71" cx="176.11" cy="136.7" fx="176.11" fy="136.7" r="96.29" xlink:href="#_未命名的渐变_71"/>
    <radialGradient id="_未命名的渐变_71-11" data-name="未命名的渐变 71" cx="176.59" cy="364.96" fx="176.59" fy="364.96" r="95.61" xlink:href="#_未命名的渐变_71"/>
    <radialGradient id="_未命名的渐变_71-12" data-name="未命名的渐变 71" cx="141.89" cy="334.55" fx="141.89" fy="334.55" r="96.37" xlink:href="#_未命名的渐变_71"/>
    <radialGradient id="_未命名的渐变_71-13" data-name="未命名的渐变 71" cx="125.73" cy="289.76" fx="125.73" fy="289.76" r="91.83" xlink:href="#_未命名的渐变_71"/>
    <radialGradient id="_未命名的渐变_71-14" data-name="未命名的渐变 71" cx="125.62" cy="212.64" fx="125.62" fy="212.64" r="91.92" xlink:href="#_未命名的渐变_71"/>
    <radialGradient id="_未命名的渐变_71-15" data-name="未命名的渐变 71" cx="141.45" cy="167.51" fx="141.45" fy="167.51" r="96.8" xlink:href="#_未命名的渐变_71"/>
  </defs>
  <path class="cls-7" d="m498.87,223.85c.91,8.67,1.38,17.48,1.38,26.4s-.45,17.45-1.34,25.99l-.61-.07-248.55-26.12v-.02l248.55-26.12.57-.06Z"/>
  <path class="cls-8" d="m487.44,327.29l.64.23c-5.45,16.8-12.64,32.82-21.34,47.84l-.56-.32-216.43-124.95v-.02l237.69,77.22Z"/>
  <path class="cls-14" d="m487.96,172.61l-.52.17-237.69,77.23v-.02l216.43-124.95.37-.22c8.73,15,15.93,31.01,21.41,47.79Z"/>
  <path class="cls-1" d="m435.46,417.32l.43.38c-11.72,12.98-24.78,24.73-38.96,35.02l-.31-.43-146.87-202.14v-.04l185.71,167.21Z"/>
  <path class="cls-6" d="m435.68,82.56l-.22.19-185.71,167.22v-.04L396.62,47.78l.11-.15c14.17,10.27,27.23,21.98,38.95,34.93Z"/>
  <path class="cls-10" d="m351.36,478.42l.2.45c-15.81,7.02-32.49,12.45-49.83,16.07l-.08-.37-51.9-244.15v-.2l101.61,228.2Z"/>
  <path class="cls-4" d="m351.4,21.56l-.04.09-101.61,228.21v-.2L301.64,5.54c17.31,3.61,33.97,9.02,49.76,16.02Z"/>
  <path class="cls-15" d="m249.75,251.25v249c-17.75-.04-35.06-1.92-51.76-5.47l51.76-243.53Z"/>
  <path class="cls-9" d="m249.75,250.42v.83L197.77,6.71l-.19-.9C214.4,2.2,231.85.29,249.74.25v1s.01,248.41.01,248.41l-.08.38.08.38Z"/>
  <path class="cls-13" d="m148.07,22.86l101.68,228.39L102.8,49l-.32-.43c14.05-10.31,29.21-19.19,45.28-26.42l.31.71Z"/>
  <path class="cls-2" d="m249.75,251.25l-101.25,227.42c-15.98-7.12-31.07-15.87-45.07-26.04l146.32-201.38Z"/>
  <path class="cls-3" d="m249.75,251.25l-185.02,166.59c-11.63-12.87-21.94-26.95-30.71-42.04l215.73-124.55Z"/>
  <path class="cls-11" d="m249.75,251.25L12.67,328.28c-5.36-16.31-9.08-33.36-10.97-50.96l248.05-26.07Z"/>
  <path class="cls-12" d="m249.75,251.25L1.5,225.16c1.75-17.65,5.35-34.76,10.59-51.13l237.66,77.22Z"/>
  <path class="cls-5" d="m249.75,251.25L33.24,126.25l-.09-.05c8.71-15.22,18.98-29.44,30.59-42.43l.22.2,185.79,167.28Z"/>
</svg>