<?xml version="1.0" encoding="UTF-8"?>
<svg xmlns="http://www.w3.org/2000/svg" viewBox="0 0 500 500">
  <defs>
    <style>
      .cls-1 {
        stroke-width: 0px;
      }

      .cls-2 {
        opacity: 0;
      }

      .cls-3 {
        opacity: .67;
      }
    </style>
  </defs>
  <g id="b">
    <g class="cls-2">
      <rect class="cls-1" x=".5" y=".5" width="499" height="499"/>
      <path class="cls-1" d="m499,1v498H1V1h498m1-1H0v500h500V0h0Z"/>
    </g>
  </g>
  <g id="a">
    <g class="cls-3">
      <path class="cls-1" d="m252.21,250.5V93.6c8.76.56,16.96,3.76,23.74,9.28l122.19,122.2c5.89,7.24,9.12,16.03,9.34,25.42h-155.28Z"/>
      <path class="cls-1" d="m252.71,94.14c8.44.65,16.33,3.78,22.89,9.1l122.16,122.16c5.72,7.05,8.9,15.54,9.22,24.6h-154.26V94.14m-1-1.07v157.93h156.29c-.12-9.96-3.66-19.09-9.5-26.27l-122.23-122.23c-6.77-5.5-15.27-8.95-24.56-9.43h0Z"/>
    </g>
  </g>
</svg>