<?xml version="1.0" encoding="UTF-8"?>
<svg xmlns="http://www.w3.org/2000/svg" viewBox="0 0 500 500">
  <defs>
    <style>
      .cls-1 {
        opacity: .33;
      }

      .cls-2 {
        stroke-width: 0px;
      }

      .cls-3 {
        opacity: 0;
      }

      .cls-4 {
        opacity: .67;
      }
    </style>
  </defs>
  <g id="b">
    <g class="cls-3">
      <rect class="cls-2" x=".5" y=".5" width="499" height="499"/>
      <path class="cls-2" d="m499,1v498H1V1h498m1-1H0v500h500V0h0Z"/>
    </g>
  </g>
  <g id="a">
    <g class="cls-4">
      <path class="cls-2" d="m251,408c-9.96-.12-19.09-3.66-26.27-9.5l-122.23-122.23c-5.64-6.94-9.13-15.7-9.47-25.27h-.03c0-.24.02-.47.02-.71H27c.17,14.17,5.21,27.15,13.51,37.36l173.84,173.84c10.21,8.31,23.2,13.34,37.36,13.51v-67.07c-.24.01-.47.03-.71.04v.03Z"/>
    </g>
    <g class="cls-1">
      <path class="cls-2" d="m251,93.03c.24,0,.47.03.71.04V27c-14.17.17-27.15,5.21-37.36,13.51L40.51,214.35c-8.31,10.21-13.34,23.2-13.51,37.36h66.07c-.01-.24-.03-.47-.04-.71h-.03c.12-9.96,3.66-19.09,9.5-26.27l122.23-122.23c7.18-5.84,16.31-9.38,26.27-9.5v.03Z"/>
    </g>
    <g class="cls-4">
      <path class="cls-2" d="m475,251.71c-.17-14.17-5.21-27.15-13.51-37.36L287.65,40.51c-10.21-8.31-23.2-13.34-37.36-13.51v66.02c.24,0,.47-.02.71-.02v.03c9.57.34,18.33,3.82,25.27,9.47l122.23,122.23c5.84,7.18,9.38,16.31,9.5,26.27h-.03c0,.24-.03.47-.04.71h67.07Z"/>
    </g>
    <g class="cls-1">
      <path class="cls-2" d="m407.98,250.29c0,.24.02.47.02.71h-.03c-.34,9.57-3.82,18.33-9.47,25.27l-122.23,122.23c-6.94,5.64-15.7,9.13-25.27,9.47v.03c-.24,0-.47-.02-.71-.02v67.02c14.17-.17,27.15-5.21,37.36-13.51l173.84-173.84c8.31-10.21,13.34-23.2,13.51-37.36h-67.02Z"/>
    </g>
    <g class="cls-4">
      <path class="cls-2" d="m250,93v.03c.17,0,.33-.01.5-.02-.17,0-.33-.01-.5-.02Z"/>
    </g>
    <g class="cls-4">
      <path class="cls-2" d="m251,93c-.17,0-.33.01-.5.02.17,0,.33.01.5.02v-.03Z"/>
    </g>
    <g class="cls-1">
      <path class="cls-2" d="m408,250h-.03c0,.17.01.33.02.5,0-.17.01-.33.02-.5Z"/>
    </g>
    <g class="cls-1">
      <path class="cls-2" d="m250,408c.17,0,.33-.01.5-.02-.17,0-.33-.01-.5-.02v.03Z"/>
    </g>
    <g class="cls-1">
      <path class="cls-2" d="m251,408v-.03c-.17,0-.33.01-.5.02.17,0,.33.01.5.02Z"/>
    </g>
    <g class="cls-1">
      <path class="cls-2" d="m407.98,250.5c0,.17-.01.33-.02.5h.03c0-.17-.01-.33-.02-.5Z"/>
    </g>
    <g class="cls-4">
      <path class="cls-2" d="m93,250c0,.17.01.33.02.5,0-.17.01-.33.02-.5h-.03Z"/>
    </g>
    <g class="cls-4">
      <path class="cls-2" d="m93,251h.03c0-.17-.01-.33-.02-.5,0,.17-.01.33-.02.5Z"/>
    </g>
  </g>
</svg>