<?xml version="1.0" encoding="utf-8"?>
<!-- Generator: Adobe Illustrator 26.3.1, SVG Export Plug-In . SVG Version: 6.00 Build 0)  -->
<svg version="1.1" id="图层_1" xmlns="http://www.w3.org/2000/svg" xmlns:xlink="http://www.w3.org/1999/xlink" x="0px" y="0px"
	 viewBox="0 0 24 24" style="enable-background:new 0 0 24 24;" xml:space="preserve">
<polygon points="11,4 11,2 6.2,2 8.2,4 "/>
<polygon points="2,11 4,11 4,8.2 2,6.2 "/>
<polygon points="6,18 13.8,18 9.5,13.6 "/>
<polygon points="13,20 13,22 17.8,22 15.8,20 "/>
<path d="M20,11h2V4c0-1.1-0.9-2-2-2h-7v2h7V11z"/>
<circle cx="15.5" cy="8.5" r="1.5"/>
<path d="M4,13H2v7c0,1.1,0.9,2,2,2h7v-2H4V13z"/>
<polygon points="22,13 20,13 20,15.8 22,17.8 "/>
<polygon points="22.6,21.2 21.9,20.6 20,18.7 5.3,4 3.4,2.1 2.8,1.4 1.4,2.7 2.1,3.4 4,5.3 14,15.3 16.7,18 18.7,20 20.6,21.9 
	21.3,22.6 22.6,21.2 22.6,21.2 "/>
</svg>
